<?xml version="1.0" encoding="UTF-8" standalone="no"?>
<svg
   viewBox="0 0 377.95276 335.95801"
   version="1.1"
   id="svg826"
   sodipodi:docname="EPx.svg"
   width="377.95276"
   height="335.95801"
   inkscape:version="1.1.1 (c3084ef, 2021-09-22)"
   xmlns:inkscape="http://www.inkscape.org/namespaces/inkscape"
   xmlns:sodipodi="http://sodipodi.sourceforge.net/DTD/sodipodi-0.dtd"
   xmlns="http://www.w3.org/2000/svg"
   xmlns:svg="http://www.w3.org/2000/svg">
  <defs
     id="defs830" />
  <sodipodi:namedview
     id="namedview828"
     pagecolor="#ffffff"
     bordercolor="#666666"
     borderopacity="1.0"
     inkscape:pageshadow="2"
     inkscape:pageopacity="0.0"
     inkscape:pagecheckerboard="0"
     showgrid="false"
     inkscape:zoom="1.4882812"
     inkscape:cx="287.91601"
     inkscape:cy="255.66404"
     inkscape:window-width="1920"
     inkscape:window-height="1027"
     inkscape:window-x="0"
     inkscape:window-y="25"
     inkscape:window-maximized="1"
     inkscape:current-layer="svg826" />
  <!-- Font Awesome Pro 5.15.4 by @fontawesome - https://fontawesome.com License - https://fontawesome.com/license (Commercial License) -->
  <path
     d="m 356.95538,62.992126 h -83.9895 V 20.997375 C 272.96588,9.3832021 263.58268,0 251.9685,0 H 125.98425 C 114.37008,0 104.98688,9.3832021 104.98688,20.997375 V 62.992126 H 20.997375 C 9.3832021,62.992126 0,72.375328 0,83.989501 V 325.45932 c 0,5.77428 4.7244094,10.49869 10.498688,10.49869 H 367.45407 c 5.77428,0 10.49869,-4.72441 10.49869,-10.49869 V 83.989501 c 0,-11.614173 -9.38321,-20.997375 -20.99738,-20.997375 z M 104.98688,286.08924 c 0,4.33071 -3.54331,7.87401 -7.874019,7.87401 H 70.866142 c -4.330709,0 -7.874016,-3.5433 -7.874016,-7.87401 v -26.24672 c 0,-4.33071 3.543307,-7.87402 7.874016,-7.87402 h 26.246719 c 4.330709,0 7.874019,3.54331 7.874019,7.87402 z m 0,-83.9895 c 0,4.33071 -3.54331,7.87401 -7.874019,7.87401 H 70.866142 c -4.330709,0 -7.874016,-3.5433 -7.874016,-7.87401 v -26.24672 c 0,-4.33071 3.543307,-7.87402 7.874016,-7.87402 h 26.246719 c 4.330709,0 7.874019,3.54331 7.874019,7.87402 z m 104.98687,83.9895 c 0,4.33071 -3.5433,7.87401 -7.87401,7.87401 h -26.24672 c -4.33071,0 -7.87402,-3.5433 -7.87402,-7.87401 v -26.24672 c 0,-4.33071 3.54331,-7.87402 7.87402,-7.87402 h 26.24672 c 4.33071,0 7.87401,3.54331 7.87401,7.87402 z m 0,-83.9895 c 0,4.33071 -3.5433,7.87401 -7.87401,7.87401 h -26.24672 c -4.33071,0 -7.87402,-3.5433 -7.87402,-7.87401 v -26.24672 c 0,-4.33071 3.54331,-7.87402 7.87402,-7.87402 h 26.24672 c 4.33071,0 7.87401,3.54331 7.87401,7.87402 z M 220.47244,90.551181 c 0,2.165354 -1.77165,3.937008 -3.93701,3.937008 h -17.06036 v 17.060371 c 0,2.16535 -1.77166,3.937 -3.93701,3.937 H 182.4147 c -2.16536,0 -3.93701,-1.77165 -3.93701,-3.937 V 94.488189 h -17.06037 c -2.16535,0 -3.93701,-1.771654 -3.93701,-3.937008 V 77.427822 c 0,-2.165355 1.77166,-3.937008 3.93701,-3.937008 h 17.06037 V 56.430446 c 0,-2.165354 1.77165,-3.937008 3.93701,-3.937008 h 13.12336 c 2.16535,0 3.93701,1.771654 3.93701,3.937008 v 17.060368 h 17.06036 c 2.16536,0 3.93701,1.771653 3.93701,3.937008 z m 94.48819,195.538059 c 0,4.33071 -3.54331,7.87401 -7.87402,7.87401 H 280.8399 c -4.33071,0 -7.87402,-3.5433 -7.87402,-7.87401 v -26.24672 c 0,-4.33071 3.54331,-7.87402 7.87402,-7.87402 h 26.24671 c 4.33071,0 7.87402,3.54331 7.87402,7.87402 z m 0,-83.9895 c 0,4.33071 -3.54331,7.87401 -7.87402,7.87401 H 280.8399 c -4.33071,0 -7.87402,-3.5433 -7.87402,-7.87401 v -26.24672 c 0,-4.33071 3.54331,-7.87402 7.87402,-7.87402 h 26.24671 c 4.33071,0 7.87402,3.54331 7.87402,7.87402 z"
     id="path824"
     style="stroke-width:0.656168" />
</svg>
